<svg viewBox="0 0 256 256" width="28" height="28" xmlns="http://www.w3.org/2000/svg">
  <defs>
    <linearGradient id="background_grad" x1="0%" y1="0%" x2="0%" y2="100%">
      <stop offset="0%" style="stop-color:#d92558;stop-opacity:1" /> 
      <stop offset="100%" style="stop-color:#b0194a;stop-opacity:1" />
    </linearGradient>
    <linearGradient id="dub_badge_grad" x1="0%" y1="0%" x2="0%" y2="100%">
      <stop offset="0%" style="stop-color:#e8710a;stop-opacity:1" /> 
      <stop offset="100%" style="stop-color:#c86108;stop-opacity:1" />
    </linearGradient>
    <filter id="shadow" x="-5%" y="-5%" width="110%" height="110%">
      <feGaussianBlur in="SourceAlpha" stdDeviation="3" />
      <feOffset dx="2" dy="4" result="offsetblur" />
      <feMerge>
        <feMergeNode />
        <feMergeNode in="SourceGraphic" />
      </feMerge>
    </filter>
  </defs>
  <circle cx="128" cy="128" r="120" fill="url(#background_grad)" stroke="#fff" stroke-width="4"/>
  <path d="M100 70 L180 128 L100 186 Z" fill="#fff" filter="url(#shadow)"/> 
  <path d="M115 110 A15 15 0 0 1 141 110 L141 135 A15 15 0 0 1 115 135 Z" fill="#b0194a" />
  <rect x="123" y="145" width="10" height="15" fill="#b0194a"/>
  <path d="M110 135 A18 18 0 0 0 146 135" stroke="#b0194a" stroke-width="3" fill="none"/>
  <rect x="140" y="160" width="100" height="60" rx="8" fill="url(#dub_badge_grad)" filter="url(#shadow)"/> 
  <text x="190" y="200" font-family="sans-serif" font-weight="700" font-size="34px" fill="#ffffff" text-anchor="middle" dominant-baseline="middle">DUB</text>
</svg>
