<svg xmlns="http://www.w3.org/2000/svg" viewBox="0 0 128 128" width="128" height="128">
  <defs>
    <linearGradient id="bgGrad" x1="0" y1="0" x2="1" y2="1">
      <stop offset="0%" stop-color="#1a1a34"/>
      <stop offset="100%" stop-color="#0b0b1c"/>
    </linearGradient>
  </defs>

  <rect width="128" height="128" rx="28" fill="url(#bgGrad)"/>
  <rect width="128" height="128" rx="28" fill="none" stroke="rgba(255,255,255,0.08)" stroke-width="2"/>

  <circle cx="38" cy="38" r="6" fill="#d92558" />

  <g>
    <circle cx="38" cy="74" r="14" fill="none" stroke="#ffffff" stroke-width="6" />
    <path d="M 52 60 L 52 88" stroke="#ffffff" stroke-width="6" stroke-linecap="round" />
  </g>

  <g>
    <path d="M 68 56 L 68 106" stroke="#d92558" stroke-width="14" stroke-linecap="round" />
    <path d="
      M 88 54
      A 20 20 0 1 1 88 94
      A 20 20 0 1 1 88 54
      Z
      M 81 65
      L 81 83
      L 96 74
      Z
    " fill="#d92558" fill-rule="evenodd" />
  </g>

  <path d="M 102 24 Q 102 36 90 36 Q 102 36 102 48 Q 102 36 114 36 Q 102 36 102 24" fill="#e8710a" />
</svg>
